# xmcd
#
# Track frame offsets:
# 150
# 16021
# 29256
# 46583
# 62117
# 76666
# 86443
# 90821
# 106593
# 122749
# 143630
# 160591
# 173775
#
# Disc length: 2776 seconds
#
#
# Revision: 0
# Processed by: cddbd v1.5.2PL0 Copyright (c) Steve Scherf et al.
# Submitted via: FreeRIP 2.944 
#
DISCID=7e0ad60d
DTITLE=ketchup - his master's voice
DYEAR=2009
DGENRE=R&B
TTITLE0=whatever
TTITLE1=perfect life
TTITLE2=mono to stereo
TTITLE3=a thin man's dream
TTITLE4=carefree loser
TTITLE5=this time
TTITLE6=3:02am
TTITLE7=hello moonlight
TTITLE8=last day in your life
TTITLE9=last talk in your life
TTITLE10=night hawk
TTITLE11=daughter in the wind
TTITLE12=sunset beach
EXTD=
EXTT0=
EXTT1=
EXTT2=
EXTT3=
EXTT4=
EXTT5=
EXTT6=
EXTT7=
EXTT8=
EXTT9=
EXTT10=
EXTT11=
EXTT12=
PLAYORDER=
